<?xml version="1.0" encoding="UTF-8"?>
<svg version="1.1" xmlns="http://www.w3.org/2000/svg" width="250" height="76">
<path d="M0 0 C82.5 0 165 0 250 0 C250 25.08 250 50.16 250 76 C167.5 76 85 76 0 76 C0 50.92 0 25.84 0 0 Z " fill="#FCFBFA" transform="translate(0,0)"/>
<path d="M0 0 C8.78851997 -0.87496327 16.69404097 1.06760865 23.87109375 6.38671875 C26.50403973 9.10916998 27.02633283 11.20737105 27.5 14.9375 C27.01340178 21.84193416 23.82820662 27.17179338 19 32 C12.70358048 36.44729586 6.5013132 36.61140564 -1 36.5 C-2.0415625 36.51546875 -3.083125 36.5309375 -4.15625 36.546875 C-10.59040174 36.51437928 -15.67293778 35.78831767 -21 32 C-25.04867915 27.63988399 -26.32741029 24.93301432 -26.20703125 18.9140625 C-26 17 -26 17 -24.9375 14.9375 C-21.92626761 13.48045207 -19.14234792 14.25692495 -16 15 C-12.08913529 16.39163101 -8.29311498 18.06227197 -4.49609375 19.73632812 C0.10713054 21.71523929 0.10713054 21.71523929 4.9921875 21.33203125 C7.1309584 20.15315793 7.1309584 20.15315793 8 18 C8.4055555 14.32465325 8.43074698 12.60285348 6.25 9.55078125 C5.5075 8.81214844 4.765 8.07351562 4 7.3125 C0 3.29166667 0 3.29166667 0 0 Z " fill="#081C42" transform="translate(29,29)"/>
<path d="M0 0 C1.05509766 -0.02449219 2.11019531 -0.04898437 3.19726562 -0.07421875 C10.73689123 -0.10240427 16.60080441 0.81764343 22.09765625 6.26953125 C24.3098519 9.95152469 25.19627845 11.83073585 25.125 16.25 C24.1875 19.375 24.1875 19.375 22.1875 21.375 C15.10331872 21.375 9.22137389 19.06729919 2.77294922 16.37109375 C-1.15531355 14.77651853 -2.55806124 14.31139031 -6.8125 15.375 C-7.1425 22.305 -7.4725 29.235 -7.8125 36.375 C-22.88146552 31.35201149 -22.88146552 31.35201149 -26.3125 26.0625 C-27.52069145 19.56847094 -27.28928537 14.96774295 -24.08203125 9.19921875 C-18.00183161 0.46243957 -9.80244243 0.01184585 0 0 Z " fill="#FD7607" transform="translate(31.8125,3.625)"/>
<path d="M0 0 C0.78375 0.04125 1.5675 0.0825 2.375 0.125 C5.55471954 6.24039739 8.21363866 12.44386505 10.6875 18.875 C11.2453418 20.27298828 11.2453418 20.27298828 11.81445312 21.69921875 C12.16056641 22.59769531 12.50667969 23.49617188 12.86328125 24.421875 C13.17821533 25.22979492 13.49314941 26.03771484 13.81762695 26.87011719 C14.43446465 29.36556745 14.21142238 30.72462234 13.375 33.125 C11 32.875 11 32.875 8.375 32.125 C8.1378125 31.465 7.900625 30.805 7.65625 30.125 C7.02203125 29.135 7.02203125 29.135 6.375 28.125 C3.03524628 27.41711565 3.03524628 27.41711565 -0.75 27.375 C-2.03132812 27.31828125 -3.31265625 27.2615625 -4.6328125 27.203125 C-5.62023437 27.17734375 -6.60765625 27.1515625 -7.625 27.125 C-8.285 29.105 -8.945 31.085 -9.625 33.125 C-11.275 33.125 -12.925 33.125 -14.625 33.125 C-14.13305452 25.92706094 -11.87373889 19.9088457 -9.1875 13.25 C-8.77951172 12.20585937 -8.37152344 11.16171875 -7.95117188 10.0859375 C-4.02290162 0.19156674 -4.02290162 0.19156674 0 0 Z " fill="#FD6A0A" transform="translate(196.625,17.875)"/>
<path d="M0 0 C0.680625 0.00644531 1.36125 0.01289063 2.0625 0.01953125 C4 0.1875 4 0.1875 7 1.1875 C7.680625 1.001875 8.36125 0.81625 9.0625 0.625 C9.701875 0.480625 10.34125 0.33625 11 0.1875 C13 2.1875 13 2.1875 13.22705078 4.25048828 C13.21657715 5.07790527 13.20610352 5.90532227 13.1953125 6.7578125 C13.18886719 7.65371094 13.18242187 8.54960938 13.17578125 9.47265625 C13.15902344 10.40980469 13.14226562 11.34695312 13.125 12.3125 C13.11597656 13.25738281 13.10695312 14.20226563 13.09765625 15.17578125 C13.07404522 17.51327292 13.04111516 19.85026123 13 22.1875 C10.23735711 22.78482819 7.83967231 23.1875 5 23.1875 C4.23945313 23.24550781 3.47890625 23.30351563 2.6953125 23.36328125 C-4.27612141 23.7341022 -4.27612141 23.7341022 -8.0625 20.875 C-11.12010472 16.63380636 -11.43651226 13.33834464 -11 8.1875 C-8.30280678 3.25814686 -5.90665657 -0.12305535 0 0 Z " fill="#FD6709" transform="translate(234,27.8125)"/>
<path d="M0 0 C2.0078125 0.1328125 2.0078125 0.1328125 5.0078125 1.1328125 C6.34349271 0.80901124 7.67704261 0.47623699 9.0078125 0.1328125 C9.6678125 0.4628125 10.3278125 0.7928125 11.0078125 1.1328125 C11.0078125 8.0628125 11.0078125 14.9928125 11.0078125 22.1328125 C6.0078125 23.1328125 6.0078125 23.1328125 3.0078125 23.1328125 C2.31945312 23.17921875 1.63109375 23.225625 0.921875 23.2734375 C-3.22789428 23.47171999 -5.37986722 23.51551268 -8.9921875 21.2578125 C-12.63614447 17.38610822 -12.37570537 13.98669082 -12.35546875 8.83984375 C-11.9921875 6.1328125 -11.9921875 6.1328125 -9.5546875 3.0078125 C-8.7090625 2.3890625 -7.8634375 1.7703125 -6.9921875 1.1328125 C-5.11159717 -0.74777783 -2.49328712 0.00920032 0 0 Z " fill="#091A3F" transform="translate(164.9921875,27.8671875)"/>
<path d="M0 0 C1.953125 0.1640625 1.953125 0.1640625 4 1 C5.046875 2.9609375 5.046875 2.9609375 5.75 5.375 C5.99234375 6.16648437 6.2346875 6.95796875 6.484375 7.7734375 C7 10 7 10 7 13 C7.66 13 8.32 13 9 13 C9.10957031 12.39671875 9.21914062 11.7934375 9.33203125 11.171875 C10.90685413 3.23374341 10.90685413 3.23374341 14 0 C15.8125 0.0625 15.8125 0.0625 18 1 C19.625 4.3125 19.625 4.3125 21 8 C21.65254575 9.34030081 22.31584869 10.67555324 23 12 C23.19335938 11.30132812 23.38671875 10.60265625 23.5859375 9.8828125 C23.84632813 8.97273438 24.10671875 8.06265625 24.375 7.125 C24.63023437 6.22007813 24.88546875 5.31515625 25.1484375 4.3828125 C26 2 26 2 28 0 C30.125 0.375 30.125 0.375 32 1 C31.60293233 7.75015037 29.926154 18.073846 25 23 C23.35 23 21.7 23 20 23 C18.35 19.04 16.7 15.08 15 11 C14.360625 12.794375 13.72125 14.58875 13.0625 16.4375 C11.125 21.875 11.125 21.875 10 23 C8.33382885 23.04063832 6.66611905 23.042721 5 23 C4.02443005 20.58335972 3.05454026 18.16475152 2.09375 15.7421875 C1.42046178 14.05415774 0.73546974 12.37067397 0.03125 10.6953125 C-1.47182595 7.00720948 -2.3148344 4.79124029 -1 1 C-0.67 0.67 -0.34 0.34 0 0 Z " fill="#0D1E42" transform="translate(119,28)"/>
<path d="M0 0 C3.125 1.5 3.125 1.5 5 3 C4.67 4.65 4.34 6.3 4 8 C3.34 7.835 2.68 7.67 2 7.5 C-1.73099794 6.87816701 -5.21873378 6.93591074 -9 7 C-8.92378512 9.44954062 -8.92378512 9.44954062 -8 12 C-5.57731098 13.37154263 -5.57731098 13.37154263 -2.625 14.125 C3.91699455 16.07551553 3.91699455 16.07551553 6 19 C6.68897966 22.06595947 6.5838056 24.91880376 6 28 C3.89981679 30.80024429 2.33686003 32.42069399 -0.875 33.8125 C-1.57625 33.874375 -2.2775 33.93625 -3 34 C-4.6396875 34.1546875 -4.6396875 34.1546875 -6.3125 34.3125 C-10.93458734 33.92079768 -13.15230342 32.51278144 -17 30 C-16.67 28.35 -16.34 26.7 -16 25 C-12 25 -12 25 -9 27 C-4.85223727 27.28662433 -4.85223727 27.28662433 -1 26 C-1 24.68 -1 23.36 -1 22 C-1.73605469 21.78085937 -2.47210938 21.56171875 -3.23046875 21.3359375 C-9.47421331 19.30692672 -13.76285902 17.89622107 -17 12 C-17.24283193 7.38619332 -16.51140913 5.61631356 -13.5625 2.0625 C-9.43699498 -0.95689136 -4.88998148 -0.78109521 0 0 Z " fill="#0B1C41" transform="translate(85,18)"/>
<path d="M0 0 C2.55662724 1.80848978 3.35118656 3.1810609 5 6 C5.375 9.3125 5.375 9.3125 5 12 C4 13 4 13 0.62109375 13.09765625 C-0.77347077 13.09098369 -2.16801743 13.07902532 -3.5625 13.0625 C-4.27341797 13.05798828 -4.98433594 13.05347656 -5.71679688 13.04882812 C-7.47790013 13.03700864 -9.23896036 13.01907263 -11 13 C-10.01 14.485 -10.01 14.485 -9 16 C-5.14880946 16.28527337 -1.69007882 16.18082522 2 15 C2.33 16.65 2.66 18.3 3 20 C-1.44400266 22.96266844 -5.78901077 22.76945894 -11 22 C-13.89683868 19.7984026 -15.39297231 18.21405538 -17 15 C-17.39771327 10.22744077 -17.47453429 7.91517328 -15.25 3.625 C-10.85132329 -1.5067895 -6.31118127 -1.92030605 0 0 Z " fill="#0B1C41" transform="translate(111,29)"/>
<path d="M0 0 C2.125 0.375 2.125 0.375 4 1 C4.07421454 4.93260944 4.12863136 8.86494722 4.16479492 12.7980957 C4.18728333 14.79327701 4.22540198 16.78826213 4.26367188 18.78320312 C4.27333984 20.03681641 4.28300781 21.29042969 4.29296875 22.58203125 C4.31653442 24.31803589 4.31653442 24.31803589 4.34057617 26.08911133 C4 29 4 29 2.6730957 30.8503418 C0.18809093 32.55789871 -2.02661366 32.81020938 -5 33 C-5.66 32.34 -6.32 31.68 -7 31 C-6.8125 28.9375 -6.8125 28.9375 -6 27 C-5.01 26.67 -4.02 26.34 -3 26 C-2.98018066 25.28344238 -2.96036133 24.56688477 -2.93994141 23.82861328 C-2.84490481 20.5936937 -2.73513981 17.35943906 -2.625 14.125 C-2.5940625 12.99707031 -2.563125 11.86914062 -2.53125 10.70703125 C-2.47324219 9.09248047 -2.47324219 9.09248047 -2.4140625 7.4453125 C-2.3826416 6.45031738 -2.3512207 5.45532227 -2.31884766 4.43017578 C-2 2 -2 2 0 0 Z " fill="#FD6107" transform="translate(216,28)"/>
<path d="M0 0 C2.875 0.9375 2.875 0.9375 4.875 3.9375 C4.6875 7.5 4.6875 7.5 3.875 10.9375 C0.875 12.9375 0.875 12.9375 -2.1875 12.75 C-5.125 11.9375 -5.125 11.9375 -7.125 8.9375 C-7.6353118 5.62047328 -7.41199603 4.35695574 -5.5 1.5625 C-3.125 -0.0625 -3.125 -0.0625 0 0 Z " fill="#FEF8F4" transform="translate(236.125,33.0625)"/>
<path d="M0 0 C2 2 2 2 2.3125 5.4375 C2 9 2 9 0.9375 11 C-2.19241926 12.6154422 -4.68174093 11.79884015 -8 11 C-9.52491998 7.95016004 -9.23562548 5.3576631 -9 2 C-6.75189745 -1.99662676 -4.02940958 -1.11451754 0 0 Z " fill="#F7F7F8" transform="translate(168,34)"/>
<path d="M0 0 C3.96 0 7.92 0 12 0 C12.66 1.98 13.32 3.96 14 6 C9 6 4 6 -1 6 C-1 3 -1 3 0 0 Z " fill="#FB7D4A" transform="translate(143,63)"/>
<path d="M0 0 C1.79068573 2.6860286 2.66055791 4.6626589 3.625 7.6875 C3.88539063 8.49574219 4.14578125 9.30398437 4.4140625 10.13671875 C4.60742188 10.75160156 4.80078125 11.36648437 5 12 C2.03 12 -0.94 12 -4 12 C-3.52309796 10.37433394 -3.04340334 8.74948689 -2.5625 7.125 C-2.29566406 6.22007813 -2.02882812 5.31515625 -1.75390625 4.3828125 C-1 2 -1 2 0 0 Z " fill="#FEF7F2" transform="translate(196,27)"/>
<path d="M0 0 C2.64 0 5.28 0 8 0 C8 1.98 8 3.96 8 6 C4.7 6 1.4 6 -2 6 C-1.33333333 4 -0.66666667 2 0 0 Z " fill="#FC9468" transform="translate(161,63)"/>
<path d="M0 0 C1.2065625 0.0309375 1.2065625 0.0309375 2.4375 0.0625 C3.0625 2.4375 3.0625 2.4375 3.4375 5.0625 C2.7775 5.7225 2.1175 6.3825 1.4375 7.0625 C-1.1875 6.6875 -1.1875 6.6875 -3.5625 6.0625 C-3.605221 4.39638095 -3.60313832 2.72867115 -3.5625 1.0625 C-2.5625 0.0625 -2.5625 0.0625 0 0 Z " fill="#FD710B" transform="translate(217.5625,17.9375)"/>
<path d="M0 0 C1.66611905 -0.042721 3.33382885 -0.04063832 5 0 C6 1 6 1 6.0625 3.5625 C6.041875 4.366875 6.02125 5.17125 6 6 C4.68 6 3.36 6 2 6 C2 6.99 2 7.98 2 9 C1.34 9 0.68 9 0 9 C0 6.03 0 3.06 0 0 Z " fill="#6C7284" transform="translate(115,63)"/>
<path d="M0 0 C2.5625 0.1875 2.5625 0.1875 4.5625 2.1875 C4.5625 3.1775 4.5625 4.1675 4.5625 5.1875 C1.2625 5.1875 -2.0375 5.1875 -5.4375 5.1875 C-2.9575 0.2275 -2.9575 0.2275 0 0 Z " fill="#D8DAE0" transform="translate(105.4375,32.8125)"/>
<path d="M0 0 C0.78375 0.04125 1.5675 0.0825 2.375 0.125 C2.375 2.105 2.375 4.085 2.375 6.125 C0.395 6.125 -1.585 6.125 -3.625 6.125 C-4.25 4.25 -4.25 4.25 -4.625 2.125 C-2.625 0.125 -2.625 0.125 0 0 Z " fill="#FD9F73" transform="translate(177.625,62.875)"/>
<path d="M0 0 C0.78375 0.04125 1.5675 0.0825 2.375 0.125 C2.375 2.105 2.375 4.085 2.375 6.125 C0.395 6.125 -1.585 6.125 -3.625 6.125 C-4.25 4.25 -4.25 4.25 -4.625 2.125 C-2.625 0.125 -2.625 0.125 0 0 Z " fill="#727787" transform="translate(97.625,62.875)"/>
<path d="M0 0 C2.97 0.495 2.97 0.495 6 1 C5.67 2.65 5.34 4.3 5 6 C3.68 6 2.36 6 1 6 C0.67 6.99 0.34 7.98 0 9 C0 6.03 0 3.06 0 0 Z " fill="#5D616E" transform="translate(101,63)"/>
<path d="M0 0 C1.2065625 0.0309375 1.2065625 0.0309375 2.4375 0.0625 C2.4375 2.0425 2.4375 4.0225 2.4375 6.0625 C0.7875 6.0625 -0.8625 6.0625 -2.5625 6.0625 C-2.94468767 4.40635343 -3.27645102 2.73792976 -3.5625 1.0625 C-2.5625 0.0625 -2.5625 0.0625 0 0 Z " fill="#646878" transform="translate(111.5625,62.9375)"/>
<path d="M0 0 C1.32 0 2.64 0 4 0 C4 1.98 4 3.96 4 6 C2.35 6 0.7 6 -1 6 C-1.625 4.125 -1.625 4.125 -2 2 C-1.34 1.34 -0.68 0.68 0 0 Z " fill="#FD9568" transform="translate(185,63)"/>
<path d="M0 0 C1.98 0 3.96 0 6 0 C6.66 1.98 7.32 3.96 8 6 C5.36 5.67 2.72 5.34 0 5 C1.32 4.67 2.64 4.34 4 4 C2.68 3.67 1.36 3.34 0 3 C0 2.01 0 1.02 0 0 Z " fill="#FCAA84" transform="translate(149,63)"/>
<path d="M0 0 C1.66611905 -0.042721 3.33382885 -0.04063832 5 0 C6 1 6 1 6.0625 3.5625 C6.041875 4.366875 6.02125 5.17125 6 6 C5.34 6 4.68 6 4 6 C3.67 4.68 3.34 3.36 3 2 C2.67 3.32 2.34 4.64 2 6 C1.34 6 0.68 6 0 6 C0 4.02 0 2.04 0 0 Z " fill="#4B546A" transform="translate(129,63)"/>
</svg>
